<?xml version="1.0" encoding="utf-8"?>
<!-- Generator: Adobe Illustrator 21.0.2, SVG Export Plug-In . SVG Version: 6.00 Build 0)  -->
<svg version="1.1" id="Capa_1" xmlns="http://www.w3.org/2000/svg" xmlns:xlink="http://www.w3.org/1999/xlink" x="0px" y="0px"
	 viewBox="0 0 58 58" style="enable-background:new 0 0 58 58;" xml:space="preserve">
<style type="text/css">
	.st0{fill:#5BC0DE;}
	.st1{fill:#30646D;}
</style>
<path class="st0" d="M53.6,45.3L44,40.5c-1.2-0.6-2-1.9-2-3.3v-3.7c0.3-0.3,0.6-0.7,0.9-1.2c1.3-1.8,2.3-3.9,3-6
	c1.2-0.4,2.1-1.5,2.1-2.9v-4c0-0.9-0.4-1.7-1-2.2v-5.8c0,0,1.2-9-11-9c-12.2,0-11,9-11,9v5.8c-0.6,0.5-1,1.3-1,2.2v4
	c0,1.1,0.6,2,1.4,2.5c1,4.4,3.6,7.5,3.6,7.5v3.7c0,1.3-0.7,2.6-1.9,3.2l-8.9,4.9c-2.6,1.4-4.2,4.1-4.2,7v3.2h44v-3
	C58,49.4,56.3,46.6,53.6,45.3z"/>
<path class="st1" d="M18.2,45.2l5.9-3.2c0,0,0,0,0.1,0l2.9-1.6c1.2-0.6,1.9-1.9,1.9-3.2v-3.7c0,0-1.1-1.3-2.1-3.3l0,0c0,0,0,0,0,0
	c-0.1-0.3-0.3-0.6-0.4-0.8c0,0,0-0.1-0.1-0.1c-0.1-0.3-0.3-0.6-0.4-0.9c0,0,0,0,0-0.1c-0.1-0.3-0.2-0.6-0.3-0.9
	c0-0.1-0.1-0.2-0.1-0.3c-0.1-0.3-0.2-0.7-0.3-1c-0.8-0.5-1.4-1.5-1.4-2.5v-4c0-0.9,0.4-1.7,1-2.2v-5.6c-1.4-1.1-3.6-2.1-7-2.1
	c-9.6,0-10,8-10,8v5c-0.5,0.5-1,1.2-1,1.9v3.5c0,0.9,0.5,1.7,1.2,2.2c0.9,3.8,3.8,6.5,3.8,6.5v3.2c0,1.2-0.6,2.2-1.6,2.8l-6.7,4.2
	C1.4,47.8,0,50.2,0,52.7v2.8h14v-3.2C14,49.3,15.6,46.6,18.2,45.2z"/>
</svg>
